# xmcd CD database file
#
# Track frame offsets:
#	182
#	14285
#	24340
#	38910
#	58337
#	66305
#	83215
#	97490
#	109000
#	123200
#	142640
#
# Disc length: 2099 seconds
#
# Revision: 5
# Processed by: cddbd v1.5.2PL0 Copyright (c) Steve Scherf et al.
# Submitted via: CDex 1.51
#
DISCID=9108310b
DTITLE=Leon Redbone - Double Time
DYEAR=1977
DGENRE=Jazz
TTITLE0=Diddy Wa Diddie
TTITLE1=Nobody's Sweetheart
TTITLE2=Shine On Harvest Moon
TTITLE3=Crazy Blues
TTITLE4=Mississippi Delta Blues
TTITLE5=Mr. Jelly Roll Baker
TTITLE6=My Melancholy Baby
TTITLE7=Sheik Of Araby
TTITLE8=Mississippi River Blues
TTITLE9=Winin' Boy Blues
TTITLE10=If We Never Meet Again This Side Of Heaven
EXTD=YEAR: 1977
EXTT0=
EXTT1=
EXTT2=
EXTT3=
EXTT4=
EXTT5=
EXTT6=
EXTT7=
EXTT8=
EXTT9=
EXTT10=
PLAYORDER=
